<svg xmlns="http://www.w3.org/2000/svg" xmlns:xlink="http://www.w3.org/1999/xlink" width="263.325" height="93.488" viewBox="0 0 263.325 93.488"><defs><clipPath id="a"><rect width="263.325" height="93.488" fill="none"/></clipPath></defs><g transform="translate(0 0)"><g transform="translate(0 0)" clip-path="url(#a)"><path d="M16.441,22.26A92.538,92.538,0,0,1,3.113,32.789,46.361,46.361,0,0,0,13.627,43.257a116,116,0,0,0,16.779-8.167c.049-.612.1-1.221.149-1.83-.849-.32-1.7-.675-2.534-1.075A29.64,29.64,0,0,1,16.441,22.26" transform="translate(5.789 41.393)" fill="#bdcc00"/><path d="M29.538,26.466a29.663,29.663,0,0,1-12.559.346c-1,.6-2,1.187-3.005,1.761q-.073.892-.152,1.79c-.329,4.069-.712,8.5-.755,12.965a46.547,46.547,0,0,0,17,.312,135.893,135.893,0,0,1-.529-17.174" transform="translate(24.298 49.214)" fill="#001937"/><path d="M27.669,24.828a29.987,29.987,0,0,1-8.041,4.055,139.64,139.64,0,0,0,.452,17.406,46.833,46.833,0,0,0,24.008-13.34c-5.59-2.431-11.052-5.173-16.419-8.121" transform="translate(36.384 46.168)" fill="#001937"/><path d="M28.4,19.152q1.36-8.493,3.051-16.922A46.5,46.5,0,0,0,19.718.025q-2.1,8.4-3.763,16.908A29.509,29.509,0,0,1,28.4,19.152" transform="translate(29.668 0.047)" fill="#001937"/><path d="M19.133,14.3q.317-.622.629-1.25Q17.12,8.484,14.618,3.839A46.535,46.535,0,0,0,2.6,19.3c-.555,1.152-1.047,2.325-1.5,3.5q4.555,3.075,9.162,6.082A112.16,112.16,0,0,0,19.133,14.3" transform="translate(2.047 7.139)" fill="#001937"/><path d="M19.388,33.59a29.8,29.8,0,0,1-2.2-17.028q-2.286-1.471-4.564-2.951A64.782,64.782,0,0,1,.092,26.287,46.434,46.434,0,0,0,1.327,33.1c1.358.112,2.722.212,4.086.289,4.6.266,9.288.366,13.974.2" transform="translate(0.171 25.31)" fill="#688300"/><path d="M11.011,15.645c2.3-4.732,4.372-9.562,6.288-14.455A46.806,46.806,0,0,0,6.43,7.387q2.239,4.161,4.581,8.258" transform="translate(11.957 2.213)" fill="#001937"/><path d="M11.009,16.919Q6.681,14.1,2.39,11.206A46.466,46.466,0,0,0,.057,28.189,63.519,63.519,0,0,0,11.009,16.919" transform="translate(0 20.838)" fill="#688300"/><path d="M13.952,7.846c-.292.555-.578,1.112-.875,1.664A118,118,0,0,1,4.927,22.59c1.244.809,2.493,1.61,3.737,2.416a30.249,30.249,0,0,1,2.09-5.79,29.677,29.677,0,0,1,5.379-7.721c-.735-1.215-1.467-2.428-2.182-3.649" transform="translate(9.162 14.59)" fill="#001937"/><path d="M33.321,28.027a29.78,29.78,0,0,1-2.6,8.324,29.676,29.676,0,0,1-7.672,9.862c5.261,2.868,10.62,5.527,16.1,7.878a46.716,46.716,0,0,0,6.84-10.377,46.514,46.514,0,0,0,3.357-31.166A175.944,175.944,0,0,1,33.321,28.027" transform="translate(42.861 23.335)" fill="#001937"/><path d="M21.215,14.627q4.306-5.366,8.4-10.895c-.655-.355-1.324-.7-2-1.029-1.29-.621-2.594-1.167-3.906-1.659q-1.347,6.773-2.485,13.583" transform="translate(39.449 1.942)" fill="#688300"/><path d="M21.14,15.9A29.806,29.806,0,0,1,37.2,43.766,178.972,178.972,0,0,0,52.208,28.919,46.606,46.606,0,0,0,31.657,2.369c-3.389,4.592-6.909,9.1-10.517,13.531" transform="translate(39.31 4.406)" fill="#bdcc00"/><path d="M21.73,30.684c.071-1.009.16-2.019.234-3.025a127.176,127.176,0,0,1-14.423,7.02,46.96,46.96,0,0,0,4.881,2.734,46.976,46.976,0,0,0,8.816,3.214c.043-3.394.26-6.751.492-9.942" transform="translate(14.022 51.432)" fill="#688300"/><path d="M8.495,20.147c.826,1.418,1.653,2.834,2.5,4.238.029.054.057.1.089.154a29.916,29.916,0,0,1,16.534-7.395Q29.3,8.524,31.417,0A46.879,46.879,0,0,0,16.233,2.393,185.522,185.522,0,0,1,8.495,20.147" transform="translate(15.796 0.001)" fill="#001937"/><path d="M19.7,22.44c-.163-.277-.315-.555-.466-.835-4.469.2-8.942.16-13.348-.066Q3.311,21.4.743,21.2A46.928,46.928,0,0,0,6.3,33,90.525,90.525,0,0,0,19.7,22.44" transform="translate(1.382 39.42)" fill="#bdcc00"/><path d="M48.054,34.051c-1.759,0-4.069-.166-5.5-.275v15.45a1.048,1.048,0,0,1-.989,1.1H38.594a1.051,1.051,0,0,1-.989-1.1V10.9a1.351,1.351,0,0,1,1.321-1.375,88.308,88.308,0,0,1,9.127-.44c8.907,0,15.4,3.08,15.4,11.933v.715c0,9.182-6.488,12.316-15.4,12.316M58.445,21.021c0-5.553-3.3-7.7-10.391-7.7-1.7,0-4.181.109-5.5.22v16.11c1.264.054,4.069.22,5.5.22,7.532,0,10.391-2.419,10.391-8.138Z" transform="translate(69.926 16.9)" fill="#001937"/><path d="M60.722,17.032a34.314,34.314,0,0,0-7.643.552v24.74a1.048,1.048,0,0,1-.989,1.1H49.229a1.049,1.049,0,0,1-.989-1.1V15.6a1.387,1.387,0,0,1,.989-1.264c3.134-1.373,6.929-1.538,11.492-1.538.715,0,1.155.054,1.155.824v2.531c0,.6-.112.878-1.155.878" transform="translate(89.702 23.802)" fill="#001937"/><path d="M65.85,43.81c-8.084,0-12.207-5.333-12.207-13.417V26.216c0-8.081,4.123-13.417,12.207-13.417s12.261,5.336,12.261,13.417v4.178c0,8.084-4.181,13.417-12.261,13.417m7.423-17.594c0-5.61-2.253-9.182-7.423-9.182-5.113,0-7.366,3.52-7.366,9.182v4.178c0,5.61,2.2,9.182,7.366,9.182,5.113,0,7.423-3.517,7.423-9.182Z" transform="translate(99.749 23.8)" fill="#001937"/><path d="M73.389,43.81a42.774,42.774,0,0,1-8.687-.824c-.715-.166-1.155-.5-1.155-1.1V39.961a.89.89,0,0,1,.989-.824h.22c2.639.329,6.654.6,8.633.6,3.574,0,5.444-.932,5.444-3.9,0-1.65-.992-2.694-4.126-4.564l-5.55-3.3c-3.357-2.036-5.61-4.4-5.61-7.864,0-5.719,4.289-7.315,9.954-7.315a51.454,51.454,0,0,1,8.576.718c.715.109,1.044.492,1.044,1.1v1.813a.842.842,0,0,1-.935.938h-.163c-1.924-.166-5.444-.44-8.521-.44s-5.116.383-5.116,3.188c0,1.647,1.264,2.694,3.795,4.178l5.444,3.246c4.561,2.694,6.045,5.058,6.045,8.3,0,5.607-4.123,7.972-10.28,7.972" transform="translate(118.165 23.8)" fill="#688300"/><path d="M84.1,43.559H83.6c-3.74,0-11.326-2.09-11.326-12.922v-16.6a1.013,1.013,0,0,1,.989-1.1h2.859a1.015,1.015,0,0,1,.989,1.1v16.6c0,6.6,2.805,8.687,6.488,8.687H84.1c3.686,0,6.488-2.087,6.488-8.687v-16.6a1.015,1.015,0,0,1,.989-1.1h2.859a1.015,1.015,0,0,1,.989,1.1v16.6c0,10.832-7.586,12.922-11.326,12.922" transform="translate(134.4 24.051)" fill="#688300"/><path d="M104.167,49.846a52.832,52.832,0,0,1-10.117.935c-8.192,0-11.984-5.333-11.984-13.58V33.244c0-8.633,3.958-13.474,11.984-13.474a40,40,0,0,1,6.434.552V10.094a1.044,1.044,0,0,1,1.044-1.044h2.805a1,1,0,0,1,.989,1.044V48.582c0,.715-.166,1.1-1.155,1.264m-3.683-25.455a42.3,42.3,0,0,0-6.434-.386c-5.387,0-7.146,3.354-7.146,9.239V37.2c0,5.991,1.7,9.348,7.146,9.348,1.87,0,4.564-.166,6.434-.332Z" transform="translate(152.601 16.829)" fill="#688300"/><path d="M95,23.761a2.237,2.237,0,1,1-2.23-2.176A2.188,2.188,0,0,1,95,23.761m-3.915,0a1.685,1.685,0,0,0,1.7,1.739,1.739,1.739,0,0,0-.014-3.474,1.688,1.688,0,0,0-1.684,1.736M92.421,24.9h-.5V22.726a4.653,4.653,0,0,1,.835-.066,1.348,1.348,0,0,1,.758.16.6.6,0,0,1,.212.478.553.553,0,0,1-.452.5v.029a.643.643,0,0,1,.4.529,1.737,1.737,0,0,0,.157.546h-.543a1.892,1.892,0,0,1-.172-.532c-.04-.24-.174-.346-.452-.346h-.24Zm.014-1.235h.24c.277,0,.5-.092.5-.317,0-.2-.146-.332-.466-.332a1.165,1.165,0,0,0-.277.026Z" transform="translate(168.33 40.138)" fill="#688300"/></g></g></svg>